<svg t="1591167228851" class="icon" viewBox="0 0 1024 1024" version="1.1" xmlns="http://www.w3.org/2000/svg" p-id="2171" xmlns:xlink="http://www.w3.org/1999/xlink" width="200" height="200">
  <defs><style type="text/css"></style></defs>
  <path d="M26.88 508.970667c0 266.24 215.850667 482.048 482.090667 482.048 266.24 0 482.048-215.808 482.048-482.048S775.168 26.88 508.970667 26.88C242.730667 26.88 26.88 242.730667 26.88 508.970667z" fill="#3D68E1" p-id="2172"></path>
  <path d="M688.298667 712.96c-57.6-25.002667-78.592-63.872-84.992-97.408 41.429333-33.365333 74.453333-86.741333 92.586666-144.213333 18.688-23.808 29.525333-48.64 29.525334-69.632 0-14.378667-5.205333-24.746667-14.378667-32.469334-3.029333-122.112-89.472-220.16-196.394667-221.653333-0.853333 0-1.664-0.170667-2.474666-0.170667l-0.981334 0.085334C404.906667 148.053333 318.634667 244.053333 313.472 364.544a40.32 40.32 0 0 0-20.992 37.205333c0 24.704 14.933333 54.656 40.106667 82.048 17.92 50.133333 46.933333 96.128 82.858666 127.146667-5.333333 34.474667-25.6 75.861333-85.845333 102.016-32.512 14.165333-91.946667 26.88-117.589333 39.936 65.706667 71.850667 190.165333 117.034667 295.082666 117.546667l1.493334 0.042666h0.384c105.642667 0 230.826667-45.312 296.96-117.589333-25.685333-13.098667-85.12-25.770667-117.632-39.936z" fill="#ffffff" p-id="2173"></path>
</svg>
