<svg t="1591190770547" class="icon" viewBox="0 0 1024 1024" version="1.1" xmlns="http://www.w3.org/2000/svg" p-id="2021" xmlns:xlink="http://www.w3.org/1999/xlink" width="200" height="200">
  <defs><style type="text/css"></style></defs>
  <path d="M373.6576 103.5264A126.6176 126.6176 0 0 1 497.8176 0c61.7472 0 113.152 44.544 124.16 103.5264H870.4a102.4 102.4 0 0 1 102.4 102.4V921.6a102.4 102.4 0 0 1-102.4 102.4H153.6a102.4 102.4 0 0 1-102.4-102.4V205.9264a102.4 102.4 0 0 1 102.4-102.4h220.0576zM499.2 183.04a50.688 50.688 0 0 0 50.5344-50.8416 50.688 50.688 0 0 0-50.5344-50.8416 50.688 50.688 0 0 0-50.5344 50.8416 50.688 50.688 0 0 0 50.5344 50.8416z m253.0304 573.0816v-87.1424l-198.8096-0.0512V609.792l198.8096 0.0512v-85.3504h-182.3232l202.0352-178.9952-63.488-71.424-210.688 185.0368L309.248 274.1248 238.7968 336.384 430.08 524.544H257.1776v85.2992h199.3216v59.0336H257.024v87.2448h199.3728v109.056h97.0752v-109.056h198.8096z" p-id="2022"></path>
</svg>
