<?xml version="1.0" standalone="no"?><!DOCTYPE svg PUBLIC "-//W3C//DTD SVG 1.1//EN" "http://www.w3.org/Graphics/SVG/1.1/DTD/svg11.dtd"><svg t="1591151636998" class="icon" viewBox="0 0 1024 1024" version="1.1" xmlns="http://www.w3.org/2000/svg" p-id="1929" xmlns:xlink="http://www.w3.org/1999/xlink" width="200" height="200"><defs><style type="text/css"></style></defs><path d="M111.304348 89.043478h801.391304A66.782609 66.782609 0 0 1 979.478261 155.826087v623.304348a66.782609 66.782609 0 0 1-66.782609 66.782608h-801.391304A66.782609 66.782609 0 0 1 44.521739 779.130435v-623.304348A66.782609 66.782609 0 0 1 111.304348 89.043478z m0 44.521739a22.26087 22.26087 0 0 0-22.26087 22.26087v623.304348a22.26087 22.26087 0 0 0 22.26087 22.260869h801.391304a22.26087 22.26087 0 0 0 22.26087-22.260869v-623.304348a22.26087 22.26087 0 0 0-22.26087-22.26087h-801.391304z m480.879304 267.486609l-51.422609-51.378087a22.26087 22.26087 0 0 1 31.521392-31.521391l89.043478 89.043478a22.171826 22.171826 0 0 1 0 31.521391l-89.043478 89.043479a22.26087 22.26087 0 0 1-31.521392-31.521392l50.66574-50.621217A203.776 203.776 0 0 0 578.782609 445.217391c-87.841391 0-158.052174 38.110609-187.080348 104.448a22.26087 22.26087 0 0 1-40.781913-17.853217C387.650783 447.799652 474.512696 400.695652 578.782609 400.695652c4.452174 0 8.94887 0.133565 13.401043 0.356174zM311.652174 957.217391a22.26087 22.26087 0 1 1 0-44.521739h400.695652a22.26087 22.26087 0 1 1 0 44.521739H311.652174z" fill="#404248" p-id="1930"></path></svg>