<svg t="1591172497064" class="icon" viewBox="0 0 1024 1024" version="1.1" xmlns="http://www.w3.org/2000/svg" p-id="2986" xmlns:xlink="http://www.w3.org/1999/xlink" width="200" height="200">
  <defs><style type="text/css"></style></defs>
  <path d="M842.176 989.376c-78.72-0.256-170.752 0.192-302.08 0.192v-48.448c42.88-22.912 89.472-267.136 124.672-266.24 135.488 27.776 231.616 105.088 231.616 252.096-1.792 38.208-20.16 62.528-54.208 62.4z m-117.12-491.072c-29.824 99.584-107.968 170.624-199.68 170.624-91.84 0-169.984-71.168-199.808-170.88-13.696-6.4-30.464-20.672-36.736-57.088-8.192-47.68 21.184-59.072 21.184-59.072 2.112-0.128 4.352 1.536 6.528 4.48 4.48-13.12 12.672-24.768 22.592-34.496 37.504-36.864 106.56-56.576 189.888-56.96 75.52-0.32 128.32 4.48 182.016 55.872 9.472 9.024 18.368 23.04 23.168 37.504 2.688-4.16 5.376-6.592 7.936-6.4 0 0 29.76 11.328 21.504 58.88-6.592 37.568-24.512 51.52-38.592 57.6z m-422.4-171.584V126.208s97.6-60.16 214.656-60.16c112.896 0 226.432 60.16 226.432 60.16v200.704s-65.216-73.6-220.608-73.6c-156.288 0-220.48 73.408-220.48 73.408z m281.792-151.68v-26.176h-48.448v-48.32h-25.664v48.32H462.08v26.24h48.192v48.32h25.664v-48.32h48.448zM518.4 941.184v48.448c-131.392 0-223.36-0.448-302.144-0.192-34.048 0.128-52.416-24.192-54.208-62.4 0-147.008 96.128-224.32 231.616-252.032 35.2-0.96 81.792 243.2 124.736 266.176z" p-id="2987" fill="#ffffff" data-spm-anchor-id="a313x.7781069.0.i5" class="selected"></path>
</svg>
