<svg t="1591424241873" class="icon" viewBox="0 0 1024 1024" version="1.1" xmlns="http://www.w3.org/2000/svg" p-id="2654" xmlns:xlink="http://www.w3.org/1999/xlink" width="200" height="200">
  <defs><style type="text/css"></style></defs>
  <path d="M1019.9 936.6H229.2c-60.6 0-117.5-23.6-160.3-66.4S2.5 770.5 2.5 709.9V97.6h790.7c60.6 0 117.5 23.6 160.3 66.4s66.4 99.8 66.4 160.3v612.3z m-957.4-779V710c0 91.9 74.8 166.7 166.7 166.7h730.7V324.3c0-91.9-74.8-166.7-166.7-166.7H62.5z" p-id="2655"></path>
  <path d="M767.6 370.1h-186c-13.2 0-24-10.8-24-24s10.8-24 24-24h186c13.2 0 24 10.8 24 24s-10.8 24-24 24zM862.5 559.1H581.1c-12.9 0-23.5-10.6-23.5-23.5s10.6-23.5 23.5-23.5h281.4c12.9 0 23.5 10.6 23.5 23.5 0.1 12.9-10.5 23.5-23.5 23.5zM862.1 743.6H581.6c-13.2 0-24-10.8-24-24s10.8-24 24-24h280.5c13.2 0 24 10.8 24 24s-10.8 24-24 24zM416.1 355.1h-1v-24h-6.2c18.2 0 33.2-14.9 33.2-33.2v-38.7c0-18.2-14.9-33.2-33.2-33.2H194.8c-18.2 0-33.2 14.9-33.2 33.2v38.7c0 18.2 14.9 33.2 33.2 33.2h-6.2v24h-1c-27.5 0-50 22.5-50 50v336.5c0 27.5 22.5 50 50 50h228.5c27.5 0 50-22.5 50-50V405.1c0-27.5-22.5-50-50-50z m0 311H189.6V475.6h226.5v190.5z" p-id="2656"></path>
  <path d="M358.1 559.1h-39v-39.7c0-9.5-7.8-17.2-17.2-17.2-9.5 0-17.2 7.8-17.2 17.2v39.7h-42c-8.2 0-15 6.7-15 15 0 8.2 6.7 15 15 15h42v35.2c0 9.5 7.8 17.2 17.2 17.2 9.5 0 17.2-7.8 17.2-17.2v-35.2h39c8.2 0 15-6.7 15-15s-6.8-15-15-15z" p-id="2657"></path>
</svg>
