<svg t="1591190764339" class="icon" viewBox="0 0 1024 1024" version="1.1" xmlns="http://www.w3.org/2000/svg" p-id="1886" xmlns:xlink="http://www.w3.org/1999/xlink" width="200" height="200">
  <defs><style type="text/css"></style></defs>
  <path d="M294.343 193.962h402.121c32.894 0 59.688-25.395 59.688-56.689V56.69C756.152 25.395 729.358 0 696.464 0H294.343c-32.894 0-59.689 25.395-59.689 56.689v80.484c0 31.294 26.795 56.79 59.689 56.79z" p-id="1887"></path>
  <path d="M864.031 78.785c-3.799-0.4-7.398-0.8-11.198-0.8H779.448c0 0.7 0.2 1.3 0.2 2v80.484c0 31.294-26.795 56.689-59.689 56.689H271.047c-32.894 0-59.688-25.395-59.688-56.69V79.985c0-0.7 0.2-1.3 0.2-2h-76.385c-32.894 0-59.689 25.396-59.689 56.69V967.11c0 31.294 26.795 56.689 59.689 56.689h720.459c32.893 0 59.688-25.395 59.688-56.689V134.674c0-28.495-22.395-51.99-51.29-55.89zM332.135 440.814c0-14.097 11.498-25.595 25.595-25.595H468.31V304.94c0-14.097 11.497-25.595 25.595-25.595h2.899a25.517 25.517 0 0 1 25.595 25.595V415.22h110.578a25.517 25.517 0 0 1 25.595 25.595v2.9c0 14.097-11.497 25.594-25.595 25.594H522.498v110.279c0 14.097-11.498 25.595-25.595 25.595h-2.9a25.517 25.517 0 0 1-25.594-25.595V469.308H357.73a25.517 25.517 0 0 1-25.595-25.595v-2.9zM630.277 921.22h-252.45c-14.898 0-26.996-12.098-26.996-26.995s12.098-26.994 26.995-26.994h252.35c14.898 0 26.996 12.097 26.996 26.994 0.1 14.897-11.998 26.995-26.895 26.995z m76.785-150.77h-407.92c-14.898 0-26.995-12.098-26.995-26.995s12.097-26.995 26.995-26.995h407.92c14.897 0 26.995 12.098 26.995 26.995s-12.098 26.995-26.995 26.995z" p-id="1888"></path>
</svg>
