<?xml version="1.0" standalone="no"?><!DOCTYPE svg PUBLIC "-//W3C//DTD SVG 1.1//EN" "http://www.w3.org/Graphics/SVG/1.1/DTD/svg11.dtd"><svg t="1591151684498" class="icon" viewBox="0 0 1024 1024" version="1.1" xmlns="http://www.w3.org/2000/svg" p-id="2644" xmlns:xlink="http://www.w3.org/1999/xlink" width="200" height="200"><defs><style type="text/css"></style></defs><path d="M277.76 46.506667c0 51.456 41.642667 93.141333 93.013333 93.141333h282.453334a93.098667 93.098667 0 0 0 93.013333-93.098667h188.586667c25.685333 0 46.506667 20.821333 46.506666 46.506667V768l-256 256H89.173333A46.506667 46.506667 0 0 1 42.666667 977.493333V93.056C42.666667 67.370667 63.488 46.506667 89.173333 46.506667h188.586667zM818.389333 768A93.098667 93.098667 0 0 0 725.333333 861.098667V981.333333l213.333334-213.333333h-120.234667zM256 647.765333a42.666667 42.666667 0 1 0 0 85.333334h477.866667a42.666667 42.666667 0 0 0 0-85.333334H256z m0 178.432a42.666667 42.666667 0 1 0 0 85.333334h243.2a42.666667 42.666667 0 0 0 0-85.333334H256zM469.333333 341.333333H384a42.666667 42.666667 0 1 0 0 85.333334h85.333333v85.333333a42.666667 42.666667 0 0 0 85.333334 0v-85.333333h85.333333a42.666667 42.666667 0 0 0 0-85.333334h-85.333333V256a42.666667 42.666667 0 0 0-85.333334 0v85.333333zM370.773333 0h282.453334a46.506667 46.506667 0 1 1 0 93.098667H370.773333A46.506667 46.506667 0 1 1 370.773333 0z" p-id="2645"></path></svg>