<?xml version="1.0" standalone="no"?><!DOCTYPE svg PUBLIC "-//W3C//DTD SVG 1.1//EN" "http://www.w3.org/Graphics/SVG/1.1/DTD/svg11.dtd"><svg t="1591151662451" class="icon" viewBox="0 0 1024 1024" version="1.1" xmlns="http://www.w3.org/2000/svg" p-id="2167" xmlns:xlink="http://www.w3.org/1999/xlink" width="200" height="200"><defs><style type="text/css"></style></defs><path d="M931.222643 114.457301h-37.315425v37.320424h37.315425c20.618163 0 37.315425 16.703512 37.315424 37.321674V450.33487h37.315425l0.005-261.235471c0.00125-41.222577-33.413272-74.642099-74.635849-74.642098zM968.539317 487.656544h37.311675v37.315425h-37.311675zM72.866632 413.014446h37.321674v261.24172h-37.321674zM72.866632 338.377347h37.321674v37.321674h-37.321674zM488.405853 435.258714h64.589244v-64.589245h64.589244v-64.589244h-64.589244v-64.587995h-64.589244v64.587995h-64.594244v64.589244h64.594244zM296.782928 506.312382h37.320425v37.325424h-37.320425zM371.418777 506.312382h391.860081v37.325424H371.418777zM259.461254 580.95448H763.273859v37.315425H259.461254zM259.461254 655.595329h429.180505v37.315425H259.461254zM741.444554 207.758986h38.390329v37.321675h-38.390329zM744.623021 282.401085h37.315424v37.316675h-37.315424z" fill="#00C3FF" p-id="2168"></path><path d="M893.42851 767.554102V63.17812h-504.667528C382.221565 28.634948 351.891767 2.499777 315.442515 2.499777c-36.439253 0-66.7728 26.135171-73.315966 60.678343H130.269017v704.374732H16.89037L130.269017 973.700732v50.299268h774.057272l-0.127488-0.231229 89.679508-256.215919h-100.449799z m61.132053 29.484873l-61.132053 174.668185V797.038975h61.132053zM315.442515 39.815202c15.681103 0 29.086158 9.665389 34.610666 23.362918h-69.225081c5.527007-13.697529 18.933313-23.362918 34.614415-23.362918zM172.184031 104.614428h180.575159v65.824134c0 10.301582-8.364255 18.660837-18.660837 18.660837-10.301582 0-18.660837-8.359255-18.660837-18.660837v-18.655838h-37.315425v18.655838c0 30.919745 25.061517 55.981261 55.981262 55.981261 30.924744 0 55.981261-25.066516 55.981261-55.981261V104.614428h461.428882v823.364129l-88.234638-160.425705H172.184031V104.614428z m-97.091348 692.897005h55.176334v100.32106l-55.176334-100.32106z m100.836015 183.338662l-3.744667-6.808143V797.511433H740.975846l100.836014 183.338662H175.928698z" fill="#00C3FF" p-id="2169"></path></svg>