<svg t="1591151716613" class="icon" viewBox="0 0 1024 1024" version="1.1" xmlns="http://www.w3.org/2000/svg" p-id="2882" xmlns:xlink="http://www.w3.org/1999/xlink" width="200" height="200">
  <defs><style type="text/css"></style></defs>
  <path d="M917.705853 686.162622c-10.154683-23.876804-24.205253-44.777833-42.107705-62.679551s-38.825828-31.952736-62.682119-42.10598c-23.899272-10.132778-49.549493-15.210423-77.03867-15.210423-26.832188 0-52.219408 5.077645-76.119704 15.210423-23.856292 10.154267-44.778644 24.204262-62.681096 42.10598-17.903475 17.901719-32.086057 38.802748-42.546722 62.679551-10.417684 23.876804-15.67053 49.547463-15.67053 77.014024 0 27.465538 5.252846 53.137221 15.67053 77.014024 10.461688 23.876804 24.643246 44.776809 42.546722 62.700017 17.902452 17.902742 38.824805 31.931247 62.681096 42.085514 23.899272 10.155291 49.287516 15.232936 76.119704 15.232936 27.489177 0 53.139398-5.077645 77.03867-15.232936 23.856292-10.154267 44.779667-24.182772 62.682119-42.085514 17.902452-17.924231 31.954045-38.823214 42.107705-62.700017 10.111703-23.876804 15.189556-49.548486 15.189556-77.014024C932.89541 735.710085 927.817556 710.039425 917.705853 686.162622zM862.15954 785.565563c-4.157863 5.974062-8.929736 8.950859-14.312547 8.950859L726.027632 794.516422c-5.383834 0-10.154683-2.976798-14.312547-8.950859-4.201867-5.975085-6.25982-13.131065-6.25982-21.491477 0-2.385327 0.570005-5.975085 1.794953-10.745738l0-98.505501c0-4.770653 2.232946-8.950859 6.697813-12.540617 4.463845-3.566222 11.204639-5.361101 20.135398-5.361101 8.972716 0 15.975488 1.794879 21.053341 5.361101 5.077853 3.589758 7.615757 7.769964 7.615757 12.540617l0 78.808904 85.093443 0c5.383834 0 10.154683 2.975774 14.312547 8.950859 4.201867 5.975085 6.25982 13.131065 6.25982 21.491477S866.361408 779.590478 862.15954 785.565563z" p-id="2883"></path>
  <path d="M479.766069 762.279207l0-13.438057c0-4.157693 0.305981-8.337899 0.874963-12.517081L259.460708 736.324068c-15.539541 0-28.802133-5.53711-39.875783-16.567327-11.030669-11.051707-16.545493-24.336268-16.545493-39.85266s5.514823-28.66997 16.545493-39.415708c11.07365-10.744715 24.337265-16.10684 39.875783-16.10684l260.619138 0c22.674324-35.235502 52.526413-63.292512 89.558311-84.191494 36.987895-20.878516 77.914656-31.339776 122.694324-31.339776l16.1075 0c5.383834 0 10.461688 0.61296 15.232537 1.794879l0-222.988654L632.925466 287.656489c-16.151503 0-30.159093-3.567245-42.108729-10.744715-11.949636-7.157004-21.798338-16.413831-29.546107-27.751041-7.790749-11.358699-13.438608-23.438828-17.027489-36.285414-3.589905-12.825097-5.383834-25.212218-5.383834-37.161365L538.859307 63.792908 235.86844 63.792908l-40.007795 0-71.184096 0c-8.601241 0-17.180992 3.261277-23.746793 9.826809s-9.827212 15.144932-9.827212 23.74582l0 81.938174L91.102544 216.770022l0 573.281715 0 81.938174c0 8.599865 3.26141 17.179264 9.827212 23.744797s15.145552 9.826809 23.746793 9.826809l81.952788 0 36.724894 0 280.272538 0c-13.700585-20.900006-24.468254-43.266409-32.216022-67.165726C483.661955 814.518988 479.766069 789.154297 479.766069 762.279207zM259.460708 399.598001l335.819875 0c15.539541 0 28.671144 5.51562 39.39481 16.567327 10.766646 11.051707 16.151503 24.336268 16.151503 39.85266 0 15.516392-5.384858 28.647457-16.151503 39.393195-10.723665 10.744715-23.856292 16.129352-39.39481 16.129352L259.460708 511.540536c-15.539541 0-28.802133-5.383614-39.875783-16.129352-11.030669-10.745738-16.545493-23.876804-16.545493-39.393195 0-15.517415 5.514823-28.800953 16.545493-39.85266C230.658574 405.113621 243.92219 399.598001 259.460708 399.598001z" p-id="2884"></path>
  <path d="M763.672517 230.339062l0-13.415544L763.672517 97.364515c0-8.600889-3.282901-17.180288-9.848702-23.74582s-15.145552-9.826809-23.768284-9.826809L597.994502 63.791885l-1.793929 0 0 111.023606 0-11.620665c0 17.180288 6.521798 34.359552 19.653401 47.490617 13.131603 13.109576 30.290081 19.652596 47.492563 19.652596l-0.526001 0L763.672517 230.338039 763.672517 230.339062z" p-id="2885"></path>
</svg>
